<?xml version="1.0" encoding="iso-8859-1"?>
<!-- Generator: Adobe Illustrator 18.1.1, SVG Export Plug-In . SVG Version: 6.00 Build 0)  -->
<svg version="1.1" id="Capa_1" xmlns="http://www.w3.org/2000/svg" xmlns:xlink="http://www.w3.org/1999/xlink" x="0px" y="0px"
	 viewBox="0 0 408 408" style="enable-background:new 0 0 408 408;" xml:space="preserve">
<g>
	<g>
		<path d="M0,392.133C0,401.483,6.517,408,15.867,408h118.717c9.35,0,17-7.65,17-17s-7.65-17-17-17H56.95l96.9-96.333
			c6.517-6.517,6.517-17,0-23.8c-6.517-6.517-16.717-6.517-23.517,0L34,350.767V267.75c0-9.35-7.65-17-17-17s-17,7.65-17,17V392.133
			z"/>
		<path d="M252.45,391c0,9.35,7.65,17,17,17h122.4c9.35,0,15.867-6.517,15.867-15.867V271.717c0-9.35-7.65-17-17-17s-17,7.65-17,17
			v75.367L281.35,254.15c-6.517-6.517-17-6.517-23.8,0c-6.517,6.517-6.517,16.717,0,23.517L354.45,374h-85.567
			C260.1,374,252.45,381.65,252.45,391z"/>
		<path d="M158.667,17c0-9.35-7.65-17-17-17h-125.8C6.517,0,0,6.517,0,15.867v121.55c0,9.35,7.65,17,17,17s17-7.65,17-17V52.983
			l96.333,96.9c3.4,3.4,7.367,5.1,11.617,5.1s8.5-1.7,11.9-5.1c6.517-6.517,6.517-16.717,0-23.517L60.917,34h80.75
			C151.3,34,158.667,26.35,158.667,17z"/>
		<path d="M258.117,149.883c3.4,3.4,7.65,5.1,11.9,5.1s8.217-1.7,11.333-5.1L374,56.95v80.467c0,9.35,7.65,17,17,17s17-7.65,17-17
			V15.867C408,6.517,401.483,0,392.133,0H276.817c-9.35,0-17,7.65-17,17s7.65,17,17,17h74.517L258.4,126.367
			C251.6,132.883,251.6,143.083,258.117,149.883z"/>
	</g>
</g>
<g>
</g>
<g>
</g>
<g>
</g>
<g>
</g>
<g>
</g>
<g>
</g>
<g>
</g>
<g>
</g>
<g>
</g>
<g>
</g>
<g>
</g>
<g>
</g>
<g>
</g>
<g>
</g>
<g>
</g>
</svg>
